<?xml version="1.0" standalone="no"?>
<!DOCTYPE svg PUBLIC "-//W3C//DTD SVG 20010904//EN"
 "http://www.w3.org/TR/2001/REC-SVG-20010904/DTD/svg10.dtd">
<svg version="1.0" xmlns="http://www.w3.org/2000/svg"
 width="512.000000pt" height="512.000000pt" viewBox="0 0 512.000000 512.000000"
 preserveAspectRatio="xMidYMid meet">

<g transform="translate(0.000000,512.000000) scale(0.100000,-0.100000)"
fill="#FFFFFF" stroke="none">
<path d="M615 4629 c-175 -26 -382 -135 -478 -252 -55 -67 -105 -165 -122
-241 -14 -58 -16 -127 -13 -430 l3 -361 28 -79 c44 -125 100 -211 201 -311
102 -101 193 -160 312 -202 l79 -28 1703 -3 c1875 -3 1765 -6 1895 59 138 70
272 203 357 357 l24 42 167 0 c93 0 191 5 218 11 118 25 159 163 79 263 -18
23 -121 142 -229 266 l-196 225 -6 96 c-19 290 -180 491 -462 575 -57 17 -157
19 -1780 20 -954 1 -1747 -2 -1780 -7z m3504 -314 c68 -25 142 -91 171 -152
18 -38 23 -71 27 -158 6 -172 -1 -156 149 -326 l136 -154 -79 -5 c-43 -3 -88
-11 -100 -18 -31 -17 -68 -70 -83 -117 -36 -117 -158 -268 -255 -316 l-50 -24
-1685 0 -1685 0 -69 34 c-85 41 -189 142 -228 221 -44 88 -50 145 -46 473 3
291 4 304 26 344 30 57 92 115 158 147 53 26 164 55 212 56 12 0 22 5 22 10 0
7 531 10 1663 8 1625 -3 1663 -4 1716 -23z"/>
<path d="M1055 3826 c-119 -53 -126 -230 -11 -285 42 -21 55 -21 797 -21 725
0 756 1 797 20 108 49 107 227 -2 279 -42 21 -55 21 -797 21 -606 -1 -760 -3
-784 -14z"/>
<path d="M3283 3819 c-108 -54 -109 -230 -1 -279 39 -18 67 -20 317 -20 257 0
277 1 317 21 56 27 89 89 81 156 -5 49 -27 85 -71 117 -26 20 -42 21 -314 24
-275 2 -289 2 -329 -19z"/>
<path d="M1048 2384 c-197 -35 -374 -140 -473 -278 -66 -93 -96 -181 -102
-296 l-6 -95 -182 -245 c-100 -135 -189 -259 -199 -277 -9 -18 -16 -52 -16
-77 0 -56 48 -125 100 -143 22 -7 105 -12 222 -12 l188 -1 21 -43 c97 -189
286 -362 454 -414 57 -17 135 -18 1780 -18 l1720 0 73 27 c246 90 423 300 477
564 14 69 16 138 13 455 l-4 374 -27 75 c-69 194 -224 333 -442 397 -56 17
-165 18 -1790 20 -1443 1 -1743 -1 -1807 -13z m3526 -319 c112 -29 190 -94
221 -184 12 -37 15 -106 15 -391 0 -323 -1 -350 -21 -407 -41 -123 -150 -238
-252 -268 -47 -13 -244 -15 -1717 -13 l-1665 3 -41 22 c-102 54 -205 180 -244
298 -40 121 -88 155 -221 155 -44 0 -79 4 -77 8 2 5 49 69 104 143 56 74 107
149 113 168 6 19 11 75 11 126 0 82 3 98 31 153 44 89 127 149 251 182 71 18
128 19 1753 19 1468 1 1688 -1 1739 -14z"/>
<path d="M1364 1581 c-109 -50 -109 -228 0 -280 40 -20 60 -21 316 -21 256 0
276 1 316 21 109 52 110 230 2 279 -39 18 -67 20 -318 20 -247 0 -279 -2 -316
-19z"/>
<path d="M2484 1581 c-109 -50 -109 -228 0 -280 42 -21 54 -21 956 -21 902 0
914 0 956 21 48 23 84 82 84 139 0 57 -37 120 -84 141 -39 18 -84 19 -956 19
-872 0 -917 -1 -956 -19z"/>
</g>
</svg>
